<?xml version="1.0" encoding="UTF-8" standalone="no"?>
<!DOCTYPE svg PUBLIC "-//W3C//DTD SVG 1.1//EN" "http://www.w3.org/Graphics/SVG/1.1/DTD/svg11.dtd">
<svg width="100%" height="100%" viewBox="0 0 240 64" version="1.1" xmlns="http://www.w3.org/2000/svg" xmlns:xlink="http://www.w3.org/1999/xlink" xml:space="preserve" xmlns:serif="http://www.serif.com/" style="fill-rule:evenodd;clip-rule:evenodd;stroke-linecap:round;stroke-linejoin:round;stroke-miterlimit:1.5;">
    <g id="Page-1">
        <text x="1.506px" y="28.529px" style="font-family:'Kavoon-Regular', 'Kavoon';font-size:36px;">Spectrum</text>
        <g transform="matrix(1,0,0,1,0,32)">
            <g transform="matrix(36,0,0,36,169.904,28.5293)">
            </g>
            <text x="64.928px" y="28.529px" style="font-family:'Kavoon-Regular', 'Kavoon';font-size:36px;">Music</text>
        </g>
        <g transform="matrix(1.5615,0,0,1.5615,67.1502,-56.0092)">
            <g transform="matrix(0.0871986,0,0,0.0871986,64.9557,25.6522)">
                <path d="M149.06,574.256C95.767,568.709 55.589,548.806 52.317,524.706L52.317,528.447C47.844,513.556 45.47,497.984 45.47,481.959C45.47,398.771 109.437,327.804 198.994,300.701C199.72,300.169 200.449,299.643 201.182,299.124L201.182,202.574C201.115,201.978 201.08,201.372 201.08,200.758L201.08,175.534C200.968,175.536 200.855,175.537 200.742,175.537C189.358,175.537 180.115,165.009 180.115,152.04C180.115,143.357 184.259,135.768 190.414,131.7C191.861,129.781 194.132,128.543 196.684,128.543L361.071,128.543C362.792,128.543 364.386,129.106 365.685,130.062C373.468,133.425 379.006,142.001 379.006,152.04C379.006,165.009 369.763,175.537 358.379,175.537C357.805,175.537 357.237,175.511 356.675,175.458L356.675,200.758C356.675,201.537 356.619,202.304 356.511,203.052L356.511,298.126C357.726,298.965 358.931,299.824 360.128,300.701C449.684,327.804 513.651,398.771 513.651,481.959C513.651,496.478 511.703,510.625 508.009,524.231C505.185,548.717 464.273,568.958 410.062,574.373L410.062,574.798L405.42,574.798C397.523,575.454 389.367,575.798 381.023,575.798C372.68,575.798 364.524,575.454 356.627,574.798L203.64,574.798C195.743,575.454 187.587,575.798 179.243,575.798C170.9,575.798 162.744,575.454 154.847,574.798L149.06,574.798L149.06,574.256Z" style="fill:white;stroke:black;stroke-width:11.02px;"/>
            </g>
            <g transform="matrix(0.0871986,0,0,0.0890337,23.942,24.8758)">
                <clipPath id="_clip1">
                    <path d="M808.876,321.417L821.729,321.417C822.171,321.726 822.612,322.037 823.051,322.351C904.353,346.319 962.425,409.081 962.425,482.651C962.425,495.491 960.656,508.003 957.303,520.036C954.739,541.69 917.598,559.591 868.383,564.38L868.383,564.756L864.169,564.756C857,565.336 849.595,565.64 842.021,565.64C834.447,565.64 827.042,565.336 819.873,564.756L680.986,564.756C673.817,565.336 666.413,565.64 658.838,565.64C651.264,565.64 643.859,565.336 636.69,564.756L631.436,564.756L631.436,564.277C583.056,559.37 546.58,541.769 543.61,520.455L543.61,523.764C539.549,510.594 537.395,496.823 537.395,482.651C537.395,409.081 595.466,346.319 676.768,322.351C677.207,322.037 677.648,321.726 678.09,321.417L689.849,321.417L689.849,242.804C689.797,242.277 689.77,241.741 689.77,241.198L689.77,218.891C689.723,218.892 689.675,218.893 689.628,218.893L689.628,177.333L808.954,177.333L808.954,235.958L809.002,235.958L809.002,241.198C809.002,241.887 808.959,242.565 808.876,243.227L808.876,321.417Z"/>
                </clipPath>
                <g clip-path="url(#_clip1)">
                    <g transform="matrix(1,0,0,1,462.04,-416.196)">
                        <rect x="51.611" y="593.529" width="472.517" height="82.041" style="fill:rgb(255,73,255);"/>
                    </g>
                    <g transform="matrix(1,0,0,1,462.04,-334.155)">
                        <rect x="51.611" y="593.529" width="472.517" height="82.041" style="fill:rgb(40,234,255);"/>
                    </g>
                    <g transform="matrix(1,0,0,1,462.04,-252.113)">
                        <rect x="51.611" y="593.529" width="472.517" height="82.041" style="fill:rgb(40,234,31);"/>
                    </g>
                    <g transform="matrix(1,0,0,1,462.04,-170.072)">
                        <rect x="51.611" y="593.529" width="472.517" height="82.041" style="fill:rgb(255,255,29);"/>
                    </g>
                    <g transform="matrix(1,0,0,1,460.389,-88.0306)">
                        <rect x="51.611" y="593.529" width="472.517" height="82.041" style="fill:rgb(255,117,0);"/>
                    </g>
                </g>
            </g>
            <g transform="matrix(0.0820332,0,0,0.0653119,66.5094,28.8129)">
                <rect x="206.745" y="140.861" width="142.958" height="32.696"/>
            </g>
            <g transform="matrix(0.0871986,0,0,0.107139,53.9835,22.8257)">
                <circle cx="472.637" cy="151.718" r="9.966"/>
            </g>
            <g transform="matrix(0.0871986,0,0,0.107139,42.2561,22.8257)">
                <circle cx="472.637" cy="151.718" r="9.966"/>
            </g>
        </g>
    </g>
</svg>
