<?xml version="1.0" encoding="UTF-8" standalone="no"?>
<!DOCTYPE svg PUBLIC "-//W3C//DTD SVG 1.1//EN" "http://www.w3.org/Graphics/SVG/1.1/DTD/svg11.dtd">
<svg width="100%" height="100%" viewBox="0 0 1024 768" version="1.1" xmlns="http://www.w3.org/2000/svg" xmlns:xlink="http://www.w3.org/1999/xlink" xml:space="preserve" xmlns:serif="http://www.serif.com/" style="fill-rule:evenodd;clip-rule:evenodd;stroke-linecap:round;stroke-linejoin:round;stroke-miterlimit:1.5;">
    <g>
        <g transform="matrix(1,0,0,1,232.439,113.108)">
            <g>
                <path d="M149.06,574.256C95.767,568.709 55.589,548.806 52.317,524.706L52.317,528.447C47.844,513.556 45.47,497.984 45.47,481.959C45.47,398.771 109.437,327.804 198.994,300.701C199.72,300.169 200.449,299.643 201.182,299.124L201.182,202.574C201.115,201.978 201.08,201.372 201.08,200.758L201.08,175.534C200.968,175.536 200.855,175.537 200.742,175.537C189.358,175.537 180.115,165.009 180.115,152.04C180.115,143.357 184.259,135.768 190.414,131.7C191.861,129.781 194.132,128.543 196.684,128.543L361.071,128.543C362.792,128.543 364.386,129.106 365.685,130.062C373.468,133.425 379.006,142.001 379.006,152.04C379.006,165.009 369.763,175.537 358.379,175.537C357.805,175.537 357.237,175.511 356.675,175.458L356.675,200.758C356.675,201.537 356.619,202.304 356.511,203.052L356.511,298.126C357.726,298.965 358.931,299.824 360.128,300.701C449.684,327.804 513.651,398.771 513.651,481.959C513.651,496.478 511.703,510.625 508.009,524.231C505.185,548.717 464.273,568.958 410.062,574.373L410.062,574.798L405.42,574.798C397.523,575.454 389.367,575.798 381.023,575.798C372.68,575.798 364.524,575.454 356.627,574.798L203.64,574.798C195.743,575.454 187.587,575.798 179.243,575.798C170.9,575.798 162.744,575.454 154.847,574.798L149.06,574.798L149.06,574.256Z" style="fill:white;stroke:black;stroke-width:1px;"/>
                <g transform="matrix(0.935404,0.353581,-0.353581,0.935404,213.431,9.46841)">
                    <text x="80.802px" y="588.865px" style="font-family:'Gugi-Regular', 'Gugi';font-size:30px;">i</text>
                </g>
                <g transform="matrix(0.959647,0.281208,-0.281208,0.959647,170.237,-1.40359)">
                    <text x="90.009px" y="592.462px" style="font-family:'Gugi-Regular', 'Gugi';font-size:30px;">n</text>
                </g>
                <g transform="matrix(0.980366,0.197185,-0.197185,0.980366,120.121,-9.96259)">
                    <text x="110.089px" y="598.219px" style="font-family:'Gugi-Regular', 'Gugi';font-size:30px;">d</text>
                </g>
                <g transform="matrix(0.989363,0.145465,-0.145465,0.989363,88.946,-12.4628)">
                    <text x="129.693px" y="601.975px" style="font-family:'Gugi-Regular', 'Gugi';font-size:30px;">i</text>
                </g>
                <text x="140.938px" y="604.798px" style="font-family:'Gugi-Regular', 'Gugi';font-size:30px;">v</text>
                <g transform="matrix(0.998188,0.0601802,-0.0601802,0.998188,36.6898,-8.27242)">
                    <text x="155.681px" y="604.976px" style="font-family:'Gugi-Regular', 'Gugi';font-size:30px;">i</text>
                </g>
                <g transform="matrix(0.99987,0.016097,-0.016097,0.99987,9.76972,-2.57029)">
                    <text x="164.55px" y="605.604px" style="font-family:'Gugi-Regular', 'Gugi';font-size:30px;">d</text>
                </g>
                <g transform="matrix(0.998981,-0.0451228,0.0451228,0.998981,-27.1511,8.95448)">
                    <text x="184.77px" y="605.886px" style="font-family:'Gugi-Regular', 'Gugi';font-size:30px;">u</text>
                </g>
                <text x="201.583px" y="604.798px" style="font-family:'Gugi-Regular', 'Gugi';font-size:30px;">a</text>
                <text x="219.873px" y="604.798px" style="font-family:'Gugi-Regular', 'Gugi';font-size:30px;">l</text>
                <text x="236.446px" y="604.798px" style="font-family:'Gugi-Regular', 'Gugi';font-size:30px;">m</text>
                <text x="262.065px" y="604.798px" style="font-family:'Gugi-Regular', 'Gugi';font-size:30px;">u</text>
                <text x="280.25px" y="604.798px" style="font-family:'Gugi-Regular', 'Gugi';font-size:30px;">s</text>
                <text x="298.673px" y="604.798px" style="font-family:'Gugi-Regular', 'Gugi';font-size:30px;">i</text>
                <text x="306.234px" y="604.798px" style="font-family:'Gugi-Regular', 'Gugi';font-size:30px;">c</text>
                <text x="333.435px" y="604.798px" style="font-family:'Gugi-Regular', 'Gugi';font-size:30px;">i</text>
                <text x="341px" y="604.798px" style="font-family:'Gugi-Regular', 'Gugi';font-size:30px;">n</text>
                <g transform="matrix(0.999142,0.0414069,-0.0414069,0.999142,25.3636,-14.3066)">
                    <text x="358.046px" y="605.13px" style="font-family:'Gugi-Regular', 'Gugi';font-size:30px;">s</text>
                </g>
                <g transform="matrix(0.999983,-0.00579454,0.00579454,0.999983,-3.50411,2.2)">
                    <text x="377.913px" y="605.821px" style="font-family:'Gugi-Regular', 'Gugi';font-size:30px;">t</text>
                </g>
                <g transform="matrix(0.998974,-0.0452845,0.0452845,0.998974,-27.0324,18.2479)">
                    <text x="389.239px" y="605.765px" style="font-family:'Gugi-Regular', 'Gugi';font-size:30px;">r</text>
                </g>
                <text x="399.687px" y="604.798px" style="font-family:'Gugi-Regular', 'Gugi';font-size:30px;">u</text>
                <g transform="matrix(0.98677,-0.162128,0.162128,0.98677,-92.2275,76.4442)">
                    <text x="422.272px" y="603.314px" style="font-family:'Gugi-Regular', 'Gugi';font-size:30px;">c</text>
                </g>
                <g transform="matrix(0.975524,-0.219895,0.219895,0.975524,-121.103,111.864)">
                    <text x="441.939px" y="599.925px" style="font-family:'Gugi-Regular', 'Gugi';font-size:30px;">t</text>
                </g>
                <g transform="matrix(0.965255,-0.26131,0.26131,0.965255,-140.353,139.155)">
                    <text x="453.099px" y="597.357px" style="font-family:'Gugi-Regular', 'Gugi';font-size:30px;">i</text>
                </g>
                <g transform="matrix(0.944153,-0.329507,0.329507,0.944153,-170.215,185.62)">
                    <text x="462.489px" y="594.96px" style="font-family:'Gugi-Regular', 'Gugi';font-size:30px;">o</text>
                </g>
                <g transform="matrix(0.89242,-0.451206,0.451206,0.89242,-213.077,281.316)">
                    <text x="483.4px" y="587.495px" style="font-family:'Gugi-Regular', 'Gugi';font-size:30px;">n</text>
                </g>
            </g>
        </g>
        <g transform="matrix(1,0,0,1,0.825524,-3.9881)">
            <g transform="matrix(1,0,0,1,232.439,111.823)">
                <path d="M149.06,574.256C95.767,568.709 55.589,548.806 52.317,524.706L52.317,528.447C47.844,513.556 45.47,497.984 45.47,481.959C45.47,398.771 109.437,327.804 198.994,300.701C199.72,300.169 200.449,299.643 201.182,299.124L201.182,202.574C201.115,201.978 201.08,201.372 201.08,200.758L201.08,175.534C200.968,175.536 200.855,175.537 200.742,175.537C189.358,175.537 180.115,165.009 180.115,152.04C180.115,143.357 184.259,135.768 190.414,131.7C191.861,129.781 194.132,128.543 196.684,128.543L361.071,128.543C362.792,128.543 364.386,129.106 365.685,130.062C373.468,133.425 379.006,142.001 379.006,152.04C379.006,165.009 369.763,175.537 358.379,175.537C357.805,175.537 357.237,175.511 356.675,175.458L356.675,200.758C356.675,201.537 356.619,202.304 356.511,203.052L356.511,298.126C357.726,298.965 358.931,299.824 360.128,300.701C449.684,327.804 513.651,398.771 513.651,481.959C513.651,496.478 511.703,510.625 508.009,524.231C505.185,548.717 464.273,568.958 410.062,574.373L410.062,574.798L405.42,574.798C397.523,575.454 389.367,575.798 381.023,575.798C372.68,575.798 364.524,575.454 356.627,574.798L203.64,574.798C195.743,575.454 187.587,575.798 179.243,575.798C170.9,575.798 162.744,575.454 154.847,574.798L149.06,574.798L149.06,574.256Z" style="fill:white;stroke:black;stroke-width:18px;"/>
            </g>
            <g transform="matrix(1,0,0,1.02104,-237.91,102.919)">
                <clipPath id="_clip1">
                    <path d="M808.876,321.417L821.729,321.417C822.171,321.726 822.612,322.037 823.051,322.351C904.353,346.319 962.425,409.081 962.425,482.651C962.425,495.491 960.656,508.003 957.303,520.036C954.739,541.69 917.598,559.591 868.383,564.38L868.383,564.756L864.169,564.756C857,565.336 849.595,565.64 842.021,565.64C834.447,565.64 827.042,565.336 819.873,564.756L680.986,564.756C673.817,565.336 666.413,565.64 658.838,565.64C651.264,565.64 643.859,565.336 636.69,564.756L631.436,564.756L631.436,564.277C583.056,559.37 546.58,541.769 543.61,520.455L543.61,523.764C539.549,510.594 537.395,496.823 537.395,482.651C537.395,409.081 595.466,346.319 676.768,322.351C677.207,322.037 677.648,321.726 678.09,321.417L689.849,321.417L689.849,242.804C689.797,242.277 689.77,241.741 689.77,241.198L689.77,218.891C689.723,218.892 689.675,218.893 689.628,218.893L689.628,177.333L808.954,177.333L808.954,235.958L809.002,235.958L809.002,241.198C809.002,241.887 808.959,242.565 808.876,243.227L808.876,321.417Z"/>
                </clipPath>
                <g clip-path="url(#_clip1)">
                    <g transform="matrix(1,0,0,1,462.04,-416.196)">
                        <rect x="51.611" y="593.529" width="472.517" height="82.041" style="fill:rgb(255,73,255);"/>
                    </g>
                    <g transform="matrix(1,0,0,1,462.04,-334.155)">
                        <rect x="51.611" y="593.529" width="472.517" height="82.041" style="fill:rgb(40,234,255);"/>
                    </g>
                    <g transform="matrix(1,0,0,1,462.04,-252.113)">
                        <rect x="51.611" y="593.529" width="472.517" height="82.041" style="fill:rgb(40,234,31);"/>
                    </g>
                    <g transform="matrix(1,0,0,1,462.04,-170.072)">
                        <rect x="51.611" y="593.529" width="472.517" height="82.041" style="fill:rgb(255,255,29);"/>
                    </g>
                    <g transform="matrix(1,0,0,1,460.389,-88.0306)">
                        <rect x="51.611" y="593.529" width="472.517" height="82.041" style="fill:rgb(255,117,0);"/>
                    </g>
                </g>
            </g>
            <g transform="matrix(0.940763,0,0,0.749001,250.257,148.07)">
                <rect x="206.745" y="140.861" width="142.958" height="32.696"/>
            </g>
            <g transform="matrix(1,0,0,1.22867,106.608,79.408)">
                <circle cx="472.637" cy="151.718" r="9.966"/>
            </g>
            <g transform="matrix(1,0,0,1.22867,-27.8815,79.408)">
                <circle cx="472.637" cy="151.718" r="9.966"/>
            </g>
            <g transform="matrix(1,0,0,1,354.042,463.993)">
                <g transform="matrix(64,0,0,64,307.645,50.7188)">
                </g>
                <text x="8.27px" y="50.719px" style="font-family:'Kavoon-Regular', 'Kavoon';font-size:64px;">Spectrum</text>
            </g>
            <g transform="matrix(1,0,0,1,354.042,553.287)">
                <g transform="matrix(64,0,0,64,251.27,50.7188)">
                </g>
                <text x="64.645px" y="50.719px" style="font-family:'Kavoon-Regular', 'Kavoon';font-size:64px;">Music</text>
            </g>
            <g transform="matrix(1,0,0,1,430.756,623.826)">
                <g transform="matrix(64,0,0,64,149.984,50.7188)">
                </g>
                <text x="9.203px" y="50.719px" style="font-family:'Kavoon-Regular', 'Kavoon';font-size:64px;">Labs</text>
            </g>
            <g id="Layer1">
            </g>
            <g transform="matrix(-0.37883,-0.510851,0.510851,-0.37883,387.024,285.845)">
                <g transform="matrix(0.948053,-0.318111,0.274137,0.817,-82.6123,104.664)">
                    <ellipse cx="126.231" cy="325.273" rx="45.247" ry="36.05"/>
                </g>
                <g transform="matrix(1,0,0,1,-3,0.859911)">
                    <path d="M170.259,322.482L170.259,150.633" style="fill:none;stroke:black;stroke-width:7.08px;"/>
                </g>
            </g>
            <g transform="matrix(0.965926,-0.258819,0.258819,0.965926,205.82,35.4121)">
                <g transform="matrix(0.482123,-0.161772,0.13941,0.415477,210.201,132.971)">
                    <ellipse cx="126.231" cy="325.273" rx="45.247" ry="36.05"/>
                </g>
                <g transform="matrix(0.50854,0,0,0.50854,249.828,80.1822)">
                    <path d="M170.259,322.482L170.259,150.633" style="fill:none;stroke:black;stroke-width:8.85px;"/>
                </g>
            </g>
            <g transform="matrix(0.542343,-0.313122,0.313122,0.542343,271.028,374.75)">
                <g transform="matrix(0.482123,-0.161772,0.13941,0.415477,210.201,132.971)">
                    <ellipse cx="126.231" cy="325.273" rx="45.247" ry="36.05"/>
                </g>
                <g transform="matrix(0.50854,0,0,0.50854,249.828,80.1822)">
                    <path d="M170.259,322.482L170.259,150.633" style="fill:none;stroke:black;stroke-width:14.13px;"/>
                </g>
            </g>
            <g transform="matrix(-0.505672,0.369429,-0.369429,-0.505672,736.194,163.753)">
                <g transform="matrix(0.482123,-0.161772,0.13941,0.415477,210.201,132.971)">
                    <ellipse cx="126.231" cy="325.273" rx="45.247" ry="36.05"/>
                </g>
                <g transform="matrix(0.50854,0,0,0.50854,249.828,80.1822)">
                    <path d="M170.259,322.482L170.259,150.633" style="fill:none;stroke:black;stroke-width:14.13px;"/>
                </g>
            </g>
            <g transform="matrix(0.328838,0.350368,-0.350368,0.328838,506.522,157.331)">
                <g transform="matrix(0.482123,-0.161772,0.13941,0.415477,210.201,132.971)">
                    <ellipse cx="126.231" cy="325.273" rx="45.247" ry="36.05"/>
                </g>
                <g transform="matrix(0.50854,0,0,0.50854,249.828,80.1822)">
                    <path d="M170.259,322.482L170.259,150.633" style="fill:none;stroke:black;stroke-width:18.42px;"/>
                </g>
            </g>
            <g transform="matrix(-0.707364,-0.408397,0.408397,-0.707364,638.146,547.87)">
                <g transform="matrix(0.482123,-0.161772,0.13941,0.415477,210.201,132.971)">
                    <ellipse cx="126.231" cy="325.273" rx="45.247" ry="36.05" style="fill:white;"/>
                </g>
                <g transform="matrix(0.50854,0,0,0.50854,249.828,80.1822)">
                    <path d="M170.259,322.482L170.259,150.633" style="fill:none;stroke:white;stroke-width:10.83px;"/>
                </g>
            </g>
            <g transform="matrix(-0.180866,-0.325351,0.325351,-0.180866,512.407,473.388)">
                <g transform="matrix(0.482123,-0.161772,0.13941,0.415477,210.201,132.971)">
                    <ellipse cx="126.231" cy="325.273" rx="45.247" ry="36.05" style="fill:white;"/>
                </g>
                <g transform="matrix(0.50854,0,0,0.50854,249.828,80.1822)">
                    <path d="M170.259,322.482L170.259,150.633" style="fill:none;stroke:white;stroke-width:23.77px;"/>
                </g>
            </g>
            <g transform="matrix(-0.297365,0.0736305,-0.0736305,-0.297365,601.976,436.699)">
                <g transform="matrix(0.482123,-0.161772,0.13941,0.415477,210.201,132.971)">
                    <ellipse cx="126.231" cy="325.273" rx="45.247" ry="36.05" style="fill:white;"/>
                </g>
                <g transform="matrix(0.50854,0,0,0.50854,249.828,80.1822)">
                    <path d="M170.259,322.482L170.259,150.633" style="fill:none;stroke:white;stroke-width:28.89px;"/>
                </g>
            </g>
            <g transform="matrix(0.661578,0,0,0.661578,360.25,101.339)">
                <circle cx="138.64" cy="175.699" r="10.617" style="fill:white;stroke:black;stroke-width:2.27px;"/>
            </g>
            <g transform="matrix(0.661578,0,0,0.661578,442.368,72.4287)">
                <circle cx="138.64" cy="175.699" r="10.617" style="fill:white;stroke:black;stroke-width:2.27px;"/>
            </g>
            <g transform="matrix(0.661578,0,0,0.661578,420.279,50.7912)">
                <circle cx="138.64" cy="175.699" r="10.617" style="fill:white;stroke:black;stroke-width:2.27px;"/>
            </g>
            <g transform="matrix(0.661578,0,0,0.661578,456.416,19.748)">
                <circle cx="138.64" cy="175.699" r="10.617" style="fill:white;stroke:black;stroke-width:2.27px;"/>
            </g>
            <g transform="matrix(0.661578,0,0,0.661578,413.255,186.687)">
                <circle cx="138.64" cy="175.699" r="10.617" style="fill:white;stroke:black;stroke-width:2.27px;"/>
            </g>
            <g transform="matrix(0.359448,0,0,0.359448,431.246,267.662)">
                <circle cx="138.64" cy="175.699" r="10.617" style="fill:white;stroke:black;stroke-width:4.17px;"/>
            </g>
            <g transform="matrix(0.359448,0,0,0.359448,498.303,323.858)">
                <circle cx="138.64" cy="175.699" r="10.617" style="fill:white;stroke:black;stroke-width:4.17px;"/>
            </g>
            <g transform="matrix(0.359448,0,0,0.359448,494.487,209.404)">
                <circle cx="138.64" cy="175.699" r="10.617" style="fill:white;stroke:black;stroke-width:4.17px;"/>
            </g>
        </g>
    </g>
</svg>
