<?xml version="1.0" encoding="UTF-8" standalone="no"?>
<!DOCTYPE svg PUBLIC "-//W3C//DTD SVG 1.1//EN" "http://www.w3.org/Graphics/SVG/1.1/DTD/svg11.dtd">
<svg width="100%" height="100%" viewBox="0 0 2250 2250" version="1.1" xmlns="http://www.w3.org/2000/svg" xmlns:xlink="http://www.w3.org/1999/xlink" xml:space="preserve" xmlns:serif="http://www.serif.com/" style="fill-rule:evenodd;clip-rule:evenodd;stroke-linecap:round;stroke-linejoin:round;stroke-miterlimit:1.5;">
    <g transform="matrix(2.08333,0,0,2.08333,0,0)">
        <g transform="matrix(1.21031,0,0,1.06416,-150.944,-150.367)">
            <path d="M814.142,282.381C814.142,210.966 763.163,152.987 700.372,152.987L388.958,152.987C326.167,152.987 275.188,210.966 275.188,282.381L275.188,541.169C275.188,612.583 326.167,670.563 388.958,670.563L700.372,670.563C763.163,670.563 814.142,612.583 814.142,541.169L814.142,282.381Z" style="fill:none;stroke:black;stroke-width:12.29px;"/>
        </g>
        <g transform="matrix(1.21031,0,0,1.21031,-152.161,-50.4527)">
            <rect x="392.838" y="51.961" width="66.351" height="275.286" style="stroke:black;stroke-width:11.57px;"/>
        </g>
        <g transform="matrix(0.160059,0,0,1.21031,295.258,167.152)">
            <rect x="392.838" y="51.961" width="66.351" height="275.286" style="stroke:black;stroke-width:16.22px;"/>
        </g>
        <g transform="matrix(0.160059,0,0,0.892867,336.558,766.086)">
            <rect x="392.838" y="51.961" width="66.351" height="275.286" style="stroke:black;stroke-width:21.83px;"/>
        </g>
        <g transform="matrix(0.160059,0,0,0.892867,411.991,766.086)">
            <rect x="392.838" y="51.961" width="66.351" height="275.286" style="stroke:black;stroke-width:21.83px;"/>
        </g>
        <g transform="matrix(0.160059,0,0,0.892867,336.558,766.086)">
            <rect x="392.838" y="51.961" width="66.351" height="275.286" style="stroke:black;stroke-width:21.83px;"/>
        </g>
        <g transform="matrix(0.160059,0,0,0.892867,488.391,766.086)">
            <rect x="392.838" y="51.961" width="66.351" height="275.286" style="stroke:black;stroke-width:21.83px;"/>
        </g>
        <g transform="matrix(0.160059,0,0,1.21031,584.902,167.152)">
            <rect x="392.838" y="51.961" width="66.351" height="275.286" style="stroke:black;stroke-width:16.22px;"/>
        </g>
        <g transform="matrix(0.160059,0,0,1.21031,440.08,167.152)">
            <rect x="392.838" y="51.961" width="66.351" height="275.286" style="stroke:black;stroke-width:16.22px;"/>
        </g>
        <g transform="matrix(12.0577,0,0,0.0470027,-4596.74,855.736)">
            <rect x="392.838" y="51.961" width="66.351" height="275.286" style="stroke:black;stroke-width:1.64px;"/>
        </g>
        <g transform="matrix(1.21031,0,0,1.21031,137.483,-50.4527)">
            <rect x="392.838" y="51.961" width="66.351" height="275.286" style="stroke:black;stroke-width:11.57px;"/>
        </g>
        <g transform="matrix(1.21031,0,0,1.21031,-7.33928,-50.4527)">
            <rect x="392.838" y="51.961" width="66.351" height="275.286" style="stroke:black;stroke-width:11.57px;"/>
        </g>
        <g transform="matrix(1.21031,0,0,1.21031,130.022,3.96345)">
            <g transform="matrix(8.12278,0,0,-0.13148,-3147.9,596.213)">
                <rect x="392.838" y="51.961" width="66.351" height="275.286" style="stroke:black;stroke-width:2.01px;"/>
            </g>
            <g transform="matrix(1.18711,0,0,1.18711,-117.811,-361.594)">
                <circle cx="234.482" cy="781.629" r="7.596" style="fill:white;"/>
            </g>
            <g transform="matrix(1.70039,0,0,1.18711,161.559,-356.594)">
                <circle cx="234.482" cy="781.629" r="7.596" style="fill:white;"/>
            </g>
            <g transform="matrix(1,0,0,1,-222.972,-36.762)">
                <rect x="379.008" y="579.558" width="9.017" height="18.589" style="fill:white;"/>
            </g>
            <g transform="matrix(1,0,0,1,-213.955,-51.8204)">
                <rect x="379.008" y="579.558" width="9.017" height="18.589"/>
            </g>
            <g transform="matrix(1,0,0,1,-180.91,-51.8204)">
                <rect x="379.008" y="579.558" width="9.017" height="18.589"/>
            </g>
            <g transform="matrix(1,0,0,1,-148.304,-51.8204)">
                <rect x="379.008" y="579.558" width="9.017" height="18.589"/>
            </g>
            <g transform="matrix(1,0,0,1,-213.955,-51.8204)">
                <rect x="379.008" y="579.558" width="9.017" height="18.589"/>
            </g>
            <g transform="matrix(24.5941,0,0,0.358859,-9167.89,316.423)">
                <rect x="379.008" y="579.558" width="9.017" height="18.589"/>
            </g>
            <g transform="matrix(1,0,0,1,-116.139,-51.8204)">
                <rect x="379.008" y="579.558" width="9.017" height="18.589"/>
            </g>
            <g transform="matrix(1,0,0,1,-83.4415,-51.8204)">
                <rect x="379.008" y="579.558" width="9.017" height="18.589"/>
            </g>
            <g transform="matrix(1,0,0,1,-51.3645,-51.8204)">
                <rect x="379.008" y="579.558" width="9.017" height="18.589"/>
            </g>
            <g transform="matrix(1,0,0,1,-18.7831,-51.8204)">
                <rect x="379.008" y="579.558" width="9.017" height="18.589"/>
            </g>
            <g transform="matrix(1,0,0,1,108.848,-42.5259)">
                <rect x="379.008" y="579.558" width="9.017" height="18.589"/>
            </g>
            <g transform="matrix(1,0,0,1,130.262,-42.5259)">
                <rect x="379.008" y="579.558" width="9.017" height="18.589"/>
            </g>
            <g transform="matrix(1,0,0,1,108.848,5.68127)">
                <rect x="379.008" y="579.558" width="9.017" height="18.589"/>
            </g>
            <g transform="matrix(1,0,0,1,130.262,5.68127)">
                <rect x="379.008" y="579.558" width="9.017" height="18.589"/>
            </g>
            <g transform="matrix(1,0,0,1,-194.862,-44.9607)">
                <g transform="matrix(1.18711,0,0,1.18711,109.668,-316.634)">
                    <circle cx="234.482" cy="781.629" r="7.596" style="fill:white;"/>
                </g>
                <g transform="matrix(1,0,0,1,4.50835,8.19869)">
                    <rect x="379.008" y="579.558" width="9.017" height="18.589" style="fill:white;"/>
                </g>
            </g>
            <g transform="matrix(1,0,0,1,-162.245,-44.9607)">
                <g transform="matrix(1.18711,0,0,1.18711,109.668,-316.634)">
                    <circle cx="234.482" cy="781.629" r="7.596" style="fill:white;"/>
                </g>
                <g transform="matrix(1,0,0,1,4.50835,8.19869)">
                    <rect x="379.008" y="579.558" width="9.017" height="18.589" style="fill:white;"/>
                </g>
            </g>
            <g transform="matrix(1,0,0,1,-31.7751,-44.9607)">
                <g transform="matrix(1.18711,0,0,1.18711,109.668,-316.634)">
                    <circle cx="234.482" cy="781.629" r="7.596" style="fill:white;"/>
                </g>
                <g transform="matrix(1,0,0,1,4.50835,8.19869)">
                    <rect x="379.008" y="579.558" width="9.017" height="18.589" style="fill:white;"/>
                </g>
            </g>
            <g transform="matrix(1,0,0,1,-97.01,-44.9607)">
                <g transform="matrix(1.18711,0,0,1.18711,109.668,-316.634)">
                    <circle cx="234.482" cy="781.629" r="7.596" style="fill:white;"/>
                </g>
                <g transform="matrix(1,0,0,1,4.50835,8.19869)">
                    <rect x="379.008" y="579.558" width="9.017" height="18.589" style="fill:white;"/>
                </g>
            </g>
            <g transform="matrix(1,0,0,1,-129.627,-44.9607)">
                <g transform="matrix(1.18711,0,0,1.18711,109.668,-316.634)">
                    <circle cx="234.482" cy="781.629" r="7.596" style="fill:white;"/>
                </g>
                <g transform="matrix(1,0,0,1,4.50835,8.19869)">
                    <rect x="379.008" y="579.558" width="9.017" height="18.589" style="fill:white;"/>
                </g>
            </g>
            <g transform="matrix(1,0,0,1,-64.3926,-44.9607)">
                <g transform="matrix(1.18711,0,0,1.18711,109.668,-316.634)">
                    <circle cx="234.482" cy="781.629" r="7.596" style="fill:white;"/>
                </g>
                <g transform="matrix(1,0,0,1,4.50835,8.19869)">
                    <rect x="379.008" y="579.558" width="9.017" height="18.589" style="fill:white;"/>
                </g>
            </g>
        </g>
        <g transform="matrix(4.82969,0,0,0.894234,-1447.45,283.453)">
            <rect x="379.008" y="579.558" width="9.017" height="18.589"/>
        </g>
        <g transform="matrix(2.98283,0,0,3.00952,-1003.31,-907.921)">
            <rect x="379.008" y="579.558" width="9.017" height="18.589"/>
        </g>
        <g transform="matrix(4.82969,0,0,0.894234,-1371.99,283.453)">
            <rect x="379.008" y="579.558" width="9.017" height="18.589"/>
        </g>
        <g transform="matrix(4.82969,0,0,0.894234,-1296.36,283.453)">
            <rect x="379.008" y="579.558" width="9.017" height="18.589"/>
        </g>
        <g transform="matrix(1.21031,0,0,1.21031,127.2,3.96345)">
            <path d="M524.436,777.833C524.436,822.43 488.229,858.637 443.632,858.637L126.179,858.637C81.582,858.637 45.375,822.43 45.375,777.833C45.375,733.236 81.582,697.029 126.179,697.029L443.632,697.029C488.229,697.029 524.436,733.236 524.436,777.833ZM490.672,777.833C490.672,749.457 467.634,726.42 439.258,726.42L131.432,726.42C103.056,726.42 80.018,749.457 80.018,777.833C80.018,806.209 103.056,829.246 131.432,829.246L439.258,829.246C467.634,829.246 490.672,806.209 490.672,777.833Z"/>
        </g>
        <g transform="matrix(7.41098e-17,-1.21031,1.21031,7.41098e-17,-50.3134,1979.61)">
            <path d="M921.401,696.833C921.401,696.833 973.222,825.254 995.731,825.375C963.383,831.251 871.83,828.109 854.29,826.705C890.392,808.232 921.401,696.833 921.401,696.833Z" style="stroke:black;stroke-width:23.13px;"/>
        </g>
    </g>
</svg>
